<svg width="17" height="15" viewBox="0 0 17 15" fill="none" xmlns="http://www.w3.org/2000/svg">
<path d="M7.98961 5.47862V7.03418L8.76939 7.81195M4.5 6.64531C4.58737 5.78978 4.98747 4.99628 5.62395 4.41619C6.26044 3.83611 7.08876 3.51005 7.95089 3.50023C8.81301 3.49041 9.64858 3.79751 10.2982 4.36294C10.9478 4.92837 11.366 5.71256 11.4729 6.56588C11.5798 7.4192 11.3681 8.28192 10.878 8.98944C10.3879 9.69697 9.65384 10.1998 8.81582 10.4019C7.9778 10.6041 7.0945 10.4914 6.33444 10.0854C5.57438 9.67948 4.99077 9.00863 4.69495 8.20087M4.5 10.1453V8.20087H6.44946" stroke="#434343" stroke-linecap="round" stroke-linejoin="round"/>
<path d="M0.5 13.853L1.5835 10.6025C0.64706 9.21748 0.308298 7.57734 0.630202 5.987C0.952107 4.39666 1.91277 2.96434 3.33358 1.95635C4.75439 0.948362 6.53865 0.4333 8.35463 0.506931C10.1706 0.580561 11.8947 1.23787 13.2064 2.35665C14.5181 3.47543 15.328 4.97954 15.4857 6.58933C15.6434 8.19912 15.1381 9.80503 14.0637 11.1085C12.9893 12.4119 11.4189 13.3242 9.64458 13.6757C7.87025 14.0272 6.01269 13.794 4.41728 13.0195L0.5 13.853Z" stroke="#434343" stroke-linecap="round" stroke-linejoin="round"/>
</svg>
